<svg xmlns="http://www.w3.org/2000/svg" xmlns:xlink="http://www.w3.org/1999/xlink" version="1.1" x="0px" y="0px" fill="#0e84f8" viewBox="0 0 100 125" enable-background="new 0 0 100 100" xml:space="preserve"><g><path d="M38.228,91.773V78.637c0-1.989,1.613-3.602,3.602-3.602c1.989,0,3.602,1.613,3.602,3.602v13.137   c0,1.989-1.613,3.602-3.602,3.602C39.84,95.375,38.228,93.763,38.228,91.773z"/><path d="M50,27.892c-1.989,0-3.602-1.613-3.602-3.602V8.227c0-1.989,1.613-3.602,3.602-3.602c1.989,0,3.602,1.613,3.602,3.602   V24.29C53.602,26.279,51.989,27.892,50,27.892z"/><g><path d="M34.959,29.093c-0.922,0-1.844-0.352-2.547-1.055L21.055,16.681c-1.407-1.407-1.407-3.687-0.001-5.094    c1.407-1.407,3.688-1.406,5.094-0.001l11.357,11.356c1.407,1.407,1.407,3.688,0.001,5.094    C36.803,28.741,35.881,29.093,34.959,29.093z"/><path d="M65.042,29.093c-0.922,0-1.844-0.352-2.547-1.055c-1.407-1.406-1.407-3.687,0-5.093l11.356-11.356    c1.406-1.407,3.688-1.407,5.093,0c1.407,1.406,1.407,3.687,0,5.093L67.588,28.037C66.885,28.741,65.963,29.093,65.042,29.093z"/></g><path d="M55.037,91.773V78.637c0-1.989,1.613-3.602,3.602-3.602c1.989,0,3.602,1.613,3.602,3.602v13.137   c0,1.989-1.613,3.602-3.602,3.602C56.649,95.375,55.037,93.763,55.037,91.773z"/><g><g><path d="M56.27,51.301c-1.711,0-3.098-1.344-3.098-3.002c0-1.615-1.355-2.928-3.022-2.928c-1.711,0-3.098-1.344-3.098-3.002     s1.387-3.002,3.098-3.002c5.083,0,9.218,4.006,9.218,8.931C59.368,49.957,57.981,51.301,56.27,51.301z"/></g><path d="M69,48.563c0-10.236-8.434-18.564-18.999-18.564S31,38.327,31,48.563v18.246l0,0v7.979C31,76.777,32.517,79,34.571,79    h30.859C67.482,79,69,76.777,69,74.788v-7.979l0,0V48.563z M62,72H38v-6.721c0-0.044,0-0.085,0-0.128V48.563    c0-6.264,5.535-11.36,12.001-11.36c6.465,0,11.999,5.096,11.999,11.36v17.918c0,0.044,0,0.085,0,0.129V72z"/></g></g></svg>