<svg xmlns="http://www.w3.org/2000/svg" xmlns:xlink="http://www.w3.org/1999/xlink" version="1.1" x="0px" y="0px" viewBox="0 0 100 125" fill="#7153CB" enable-background="new 0 0 100 100" xml:space="preserve"><g><path d="M48.2797241,22.3353252c-13.906189,0.8315659-25.0635376,11.9542332-25.9412785,25.860487   c-0.4966431,7.7500153,2.1482849,15.1304855,7.4382095,20.7668953c5.2321186,5.5671158,12.6010303,8.7549286,20.2240086,8.7549286   c0.3118706,0,0.9355469-0.0231247,0.9355469-0.0231247c0.3465576-0.0115585,0.6699219-0.1847687,0.8778114-0.4620285   c0.2078934-0.2887497,0.2771912-0.6467972,0.1848412-0.9932785c-0.0346832-0.127037-3.4188309-13.0283775,1.7440605-19.5194778   c3.6382141-4.5738297,8.7779808-7.4151573,13.4210396-7.4151573c2.1599121,0,4.1233597,0.6467972,5.6479721,1.8595352   c0.2310104,0.1848412,0.4504623,0.3811684,0.6699142,0.5890617c0.473526,0.4735909,1.0972672,0.7276573,1.7556305,0.7276573   c1.3859406,0,2.4832077-1.0741425,2.4832077-2.4832115C77.7206879,34.1509628,64.3457565,21.3535309,48.2797241,22.3353252z    M35.3899422,63.187706c-3.1762543,0-5.7750053-2.5871925-5.7750053-5.7750053   c0-3.1878166,2.5987511-5.7750053,5.7750053-5.7750053c3.1878128,0,5.7750053,2.5871887,5.7750053,5.7750053   C41.1649475,60.6005135,38.577755,63.187706,35.3899422,63.187706z M36.1406517,48.8426132   c-3.1877441,0-5.7750053-2.5872612-5.7750053-5.7750053c0-3.1762543,2.5872612-5.7750053,5.7750053-5.7750053   c3.1878128,0,5.7750053,2.5987511,5.7750053,5.7750053C41.915657,46.255352,39.3284645,48.8426132,36.1406517,48.8426132z    M46.5356598,38.4476013c-3.1877441,0-5.7750053-2.5872612-5.7750053-5.7750053   c0-3.1762505,2.5872612-5.7750034,5.7750053-5.7750034c3.1878128,0,5.7750053,2.598753,5.7750053,5.7750034   C52.3106651,35.8603401,49.7234726,38.4476013,46.5356598,38.4476013z M61.5506744,43.0676079   c-3.1877441,0-5.7750053-2.5872612-5.7750053-5.7750053c0-3.1762543,2.5872612-5.7750053,5.7750053-5.7750053   c3.1878128,0,5.7750015,2.5987511,5.7750015,5.7750053C67.325676,40.4803467,64.7384872,43.0676079,61.5506744,43.0676079z"/></g></svg>