<svg xmlns="http://www.w3.org/2000/svg" xmlns:xlink="http://www.w3.org/1999/xlink" version="1.1" x="0px" y="0px" viewBox="0 0 100 125" enable-background="new 0 0 100 100" xml:space="preserve"><g><path d="M59.085,38.563c-1.117-0.446-2.5-0.195-3.313,0.728c-1.061,1.203-0.945,3.045,0.257,4.105   c0.532,0.469,1.215,0.728,1.924,0.728c0.835,0,1.63-0.358,2.182-0.984c0.851-0.964,0.933-2.333,0.317-3.388l8.584-9.729   c0.359,0.154,0.746,0.243,1.143,0.243c0.834,0,1.631-0.358,2.183-0.984c1.061-1.203,0.944-3.045-0.257-4.105   c-1.158-1.021-3.086-0.901-4.105,0.257c-0.515,0.583-0.771,1.331-0.723,2.105c0.029,0.462,0.176,0.896,0.403,1.283L59.085,38.563z    M58.776,41.94c-0.386,0.436-1.111,0.482-1.549,0.097c-0.453-0.399-0.496-1.094-0.097-1.547c0.208-0.236,0.509-0.371,0.823-0.371   c0.268,0,0.523,0.097,0.725,0.273C59.132,40.793,59.176,41.487,58.776,41.94z M69.358,26.631c0.207-0.235,0.508-0.37,0.822-0.37   c0.267,0,0.523,0.097,0.725,0.274c0.453,0.399,0.496,1.094,0.098,1.547c-0.386,0.436-1.111,0.482-1.549,0.097   c-0.219-0.193-0.35-0.461-0.369-0.754C69.067,27.133,69.164,26.852,69.358,26.631z"/><path d="M78.544,71.968c-0.922-0.813-2.326-0.892-3.377-0.309L53.883,52.882l-1.199,1.358h0.001l-9.536,10.809l1.359,1.198   l0.005-0.006l5.57,4.913l1.199-1.359l0,0l3.188-3.614c0.359,0.154,0.745,0.244,1.143,0.244c0.834,0,1.631-0.358,2.182-0.985   c1.061-1.202,0.945-3.044-0.256-4.105c-1.158-1.021-3.086-0.899-4.105,0.257c-0.516,0.583-0.771,1.331-0.723,2.106   c0.029,0.462,0.176,0.895,0.403,1.282l-3.19,3.616l-4.211-3.714l8.331-9.442l19.913,17.568c-0.178,0.414-0.268,0.86-0.24,1.322   c0.049,0.775,0.396,1.486,0.979,2c0.532,0.47,1.215,0.728,1.923,0.728c0.835,0,1.631-0.358,2.182-0.983   c0.516-0.584,0.771-1.331,0.723-2.106S79.126,72.481,78.544,71.968z M54.791,62.79c0.208-0.235,0.509-0.371,0.823-0.371   c0.266,0,0.523,0.098,0.725,0.274c0.453,0.4,0.496,1.094,0.098,1.547c-0.386,0.436-1.112,0.482-1.549,0.098   c-0.22-0.194-0.351-0.461-0.369-0.754C54.501,63.292,54.597,63.011,54.791,62.79z M77.442,74.874   c-0.385,0.436-1.111,0.482-1.548,0.098c-0.22-0.194-0.351-0.462-0.369-0.755c-0.019-0.292,0.078-0.573,0.272-0.793   c0.207-0.235,0.508-0.371,0.822-0.371c0.267,0,0.524,0.098,0.725,0.274c0.221,0.193,0.352,0.461,0.369,0.754   C77.732,74.373,77.636,74.654,77.442,74.874z"/><path d="M57.267,69.807c-0.516,0.583-0.771,1.331-0.723,2.106c0.048,0.775,0.396,1.485,0.979,2   c0.531,0.469,1.215,0.728,1.924,0.728c0.834,0,1.63-0.358,2.182-0.985c1.061-1.202,0.945-3.044-0.256-4.105   C60.212,68.528,58.284,68.65,57.267,69.807z M60.27,72.456c-0.386,0.437-1.111,0.483-1.548,0.098   c-0.221-0.194-0.352-0.461-0.369-0.754c-0.019-0.292,0.078-0.573,0.271-0.794c0.209-0.235,0.509-0.371,0.824-0.371   c0.266,0,0.523,0.098,0.725,0.274C60.626,71.31,60.669,72.003,60.27,72.456z"/><path d="M50.868,49.622c0.359,0.154,0.745,0.243,1.142,0.243c0.835,0,1.63-0.358,2.181-0.983c1.063-1.203,0.947-3.045-0.256-4.106   c-1.158-1.022-3.085-0.9-4.105,0.257c-0.514,0.583-0.771,1.331-0.723,2.105c0.029,0.462,0.176,0.896,0.404,1.283L30.724,69.717   c-1.117-0.447-2.5-0.195-3.312,0.727c-0.515,0.583-0.771,1.331-0.722,2.105c0.048,0.775,0.396,1.486,0.979,2   c0.532,0.47,1.215,0.728,1.923,0.728c0.835,0,1.63-0.358,2.182-0.983c0.515-0.584,0.771-1.331,0.722-2.106   c-0.029-0.462-0.175-0.895-0.403-1.283L50.868,49.622z M51.188,46.231c0.208-0.235,0.509-0.371,0.824-0.371   c0.267,0,0.524,0.098,0.724,0.274c0.453,0.399,0.497,1.094,0.098,1.548c-0.385,0.435-1.111,0.481-1.548,0.096   c-0.22-0.193-0.35-0.461-0.369-0.754C50.898,46.732,50.995,46.451,51.188,46.231z M30.416,73.093   c-0.385,0.436-1.111,0.483-1.548,0.097c-0.22-0.193-0.351-0.461-0.369-0.754c-0.019-0.292,0.079-0.573,0.272-0.793   c0.208-0.236,0.508-0.371,0.822-0.371c0.267,0,0.524,0.098,0.725,0.274c0.22,0.193,0.351,0.461,0.369,0.754   C30.706,72.592,30.609,72.873,30.416,73.093z"/><path d="M70.481,36.609c0.027,0.462,0.174,0.895,0.402,1.282l-3.199,3.627c-1.117-0.446-2.5-0.195-3.313,0.728   c-1.061,1.203-0.945,3.044,0.256,4.105c0.533,0.469,1.217,0.728,1.924,0.728c0.836,0,1.631-0.358,2.182-0.984   c0.516-0.583,0.771-1.331,0.723-2.106c-0.029-0.462-0.176-0.894-0.402-1.282l3.188-3.613c0.358,0.154,0.744,0.244,1.142,0.244   c0.835,0,1.63-0.358,2.183-0.985c1.061-1.203,0.945-3.044-0.257-4.105c-1.159-1.021-3.087-0.899-4.106,0.257   C70.688,35.086,70.433,35.834,70.481,36.609z M67.375,44.896c-0.384,0.436-1.11,0.481-1.548,0.097   c-0.453-0.4-0.496-1.094-0.097-1.547c0.208-0.236,0.509-0.372,0.823-0.372c0.268,0,0.523,0.098,0.725,0.274   c0.22,0.194,0.351,0.461,0.369,0.754C67.665,44.394,67.569,44.676,67.375,44.896z M72.562,35.702   c0.208-0.235,0.508-0.371,0.823-0.371c0.267,0,0.524,0.098,0.725,0.274c0.453,0.4,0.497,1.094,0.097,1.547   c-0.385,0.437-1.111,0.482-1.547,0.098c-0.221-0.194-0.352-0.461-0.369-0.754C72.271,36.204,72.368,35.922,72.562,35.702z"/><path d="M50.451,74.058l-8.576-7.565l-1.199,1.359l0,0l-2.204,2.498c-1.117-0.446-2.5-0.194-3.313,0.729   c-1.061,1.203-0.945,3.045,0.257,4.105c0.532,0.469,1.215,0.728,1.924,0.728c0.834,0,1.63-0.358,2.181-0.984   c0.515-0.583,0.771-1.331,0.722-2.105c-0.029-0.462-0.175-0.895-0.403-1.282l2.194-2.488l7.205,6.356   c-0.178,0.413-0.27,0.86-0.24,1.322c0.049,0.775,0.396,1.486,0.979,2c0.532,0.469,1.214,0.728,1.923,0.728   c0.834,0,1.63-0.358,2.182-0.984c1.062-1.202,0.947-3.044-0.256-4.105C52.903,73.554,51.5,73.477,50.451,74.058z M38.163,73.728   c-0.385,0.435-1.111,0.481-1.547,0.097c-0.453-0.399-0.497-1.094-0.097-1.547c0.208-0.236,0.508-0.371,0.824-0.371   c0.267,0,0.523,0.097,0.724,0.273c0.22,0.194,0.351,0.462,0.369,0.755C38.454,73.227,38.356,73.508,38.163,73.728z M52.725,77.273   c-0.386,0.436-1.11,0.481-1.548,0.097c-0.219-0.193-0.35-0.461-0.369-0.754c-0.018-0.292,0.078-0.573,0.272-0.794   c0.208-0.235,0.509-0.37,0.823-0.37c0.267,0,0.523,0.097,0.725,0.274C53.081,76.126,53.124,76.82,52.725,77.273z"/><path d="M69.669,61.726c0.531,0.469,1.215,0.728,1.924,0.728c0.834,0,1.629-0.358,2.181-0.984c1.062-1.202,0.946-3.044-0.256-4.106   c-0.923-0.813-2.326-0.891-3.378-0.309l-7.024-6.197c0.178-0.413,0.269-0.86,0.239-1.322c-0.047-0.774-0.396-1.485-0.979-2   c-1.158-1.021-3.085-0.899-4.105,0.257c-0.514,0.583-0.77,1.331-0.721,2.106c0.047,0.775,0.395,1.485,0.979,2   c0.531,0.469,1.215,0.728,1.923,0.728c0.522,0,1.021-0.154,1.462-0.413l7.017,6.191c-0.178,0.413-0.269,0.86-0.24,1.322   C68.737,60.501,69.085,61.211,69.669,61.726z M71.595,58.447c0.266,0,0.523,0.098,0.724,0.274c0.453,0.4,0.497,1.094,0.097,1.548   c-0.385,0.435-1.111,0.481-1.547,0.097c-0.221-0.193-0.352-0.461-0.369-0.754c-0.02-0.292,0.078-0.573,0.271-0.793   C70.979,58.583,71.278,58.447,71.595,58.447z M61.274,50.44c-0.385,0.437-1.111,0.483-1.547,0.098   c-0.221-0.194-0.352-0.461-0.369-0.754c-0.02-0.292,0.078-0.573,0.271-0.794c0.208-0.235,0.508-0.371,0.822-0.371   c0.268,0,0.525,0.098,0.725,0.274c0.221,0.194,0.352,0.461,0.369,0.754C61.565,49.939,61.468,50.222,61.274,50.44z"/><path d="M46.117,47.086l1.199-1.359l0,0l9.535-10.809l-1.359-1.198l-0.005,0.006l-5.569-4.913l-1.199,1.359l0,0l-3.2,3.628   c-1.117-0.446-2.5-0.195-3.313,0.728c-1.061,1.203-0.945,3.045,0.257,4.105c0.532,0.469,1.215,0.728,1.924,0.728   c0.834,0,1.628-0.358,2.181-0.984c0.85-0.964,0.932-2.332,0.318-3.388l3.191-3.617l4.209,3.714l-8.331,9.442L26.042,26.958   c0.479-1.122,0.227-2.47-0.737-3.321c-1.159-1.022-3.086-0.9-4.106,0.257c-0.515,0.583-0.771,1.331-0.722,2.106   c0.048,0.774,0.396,1.485,0.979,1.999c0.532,0.47,1.215,0.728,1.924,0.728c0.521,0,1.02-0.153,1.461-0.411L46.117,47.086z    M45.209,37.177c-0.386,0.437-1.11,0.481-1.548,0.097c-0.453-0.399-0.497-1.094-0.097-1.547c0.208-0.236,0.509-0.371,0.824-0.371   c0.267,0,0.524,0.097,0.725,0.274C45.566,36.029,45.609,36.724,45.209,37.177z M24.202,26.544   c-0.385,0.435-1.111,0.482-1.547,0.097c-0.22-0.194-0.351-0.462-0.369-0.754c-0.019-0.293,0.078-0.574,0.271-0.793   c0.208-0.236,0.509-0.372,0.824-0.372c0.267,0,0.524,0.098,0.725,0.274C24.559,25.396,24.603,26.09,24.202,26.544z"/><path d="M40.553,31.145c0.834,0,1.629-0.358,2.182-0.984c1.061-1.202,0.945-3.045-0.257-4.105   c-1.157-1.022-3.085-0.901-4.105,0.257c-1.061,1.203-0.945,3.045,0.257,4.105C39.161,30.886,39.844,31.145,40.553,31.145z    M39.73,27.511c0.208-0.236,0.508-0.371,0.824-0.371c0.267,0,0.523,0.097,0.724,0.274c0.453,0.399,0.497,1.095,0.097,1.547   c-0.386,0.438-1.111,0.481-1.548,0.097C39.374,28.658,39.331,27.964,39.73,27.511z"/><path d="M29.115,62.078l3.188-3.615c0.359,0.153,0.745,0.243,1.142,0.243c0.835,0,1.631-0.359,2.183-0.985   c1.061-1.202,0.945-3.044-0.257-4.104c-1.159-1.022-3.086-0.901-4.106,0.257c-0.851,0.964-0.933,2.333-0.317,3.387l-3.201,3.628   c-1.117-0.447-2.5-0.195-3.313,0.728c-1.061,1.203-0.945,3.045,0.257,4.105c0.532,0.47,1.215,0.728,1.924,0.728   c0.834,0,1.629-0.358,2.181-0.984C29.648,64.501,29.73,63.132,29.115,62.078z M32.625,55.071c0.208-0.235,0.508-0.37,0.823-0.37   c0.267,0,0.524,0.097,0.725,0.274c0.453,0.399,0.497,1.094,0.097,1.547c-0.385,0.434-1.111,0.482-1.547,0.097   C32.268,56.22,32.225,55.525,32.625,55.071z M27.438,64.266c-0.386,0.436-1.11,0.481-1.548,0.096   c-0.453-0.399-0.497-1.094-0.097-1.547c0.208-0.236,0.508-0.371,0.824-0.371c0.267,0,0.523,0.097,0.724,0.274   C27.795,63.117,27.838,63.813,27.438,64.266z"/><path d="M48.097,26.328c0.521,0,1.02-0.154,1.461-0.412l8.566,7.559l1.199-1.359l0,0l2.192-2.484   c0.359,0.153,0.745,0.243,1.143,0.243c0.835,0,1.63-0.358,2.183-0.985c1.061-1.202,0.945-3.044-0.257-4.105   c-1.159-1.021-3.087-0.899-4.106,0.257c-0.514,0.583-0.77,1.331-0.721,2.106c0.027,0.462,0.174,0.895,0.402,1.282l-2.194,2.487   L50.76,24.56c0.178-0.413,0.268-0.86,0.24-1.322c-0.047-0.774-0.395-1.485-0.978-2c-1.157-1.021-3.085-0.898-4.105,0.257   c-0.515,0.583-0.771,1.331-0.722,2.106s0.396,1.485,0.979,2C46.705,26.069,47.388,26.328,48.097,26.328z M61.837,26.239   c0.208-0.235,0.508-0.371,0.823-0.371c0.267,0,0.524,0.098,0.725,0.274c0.453,0.4,0.497,1.094,0.097,1.547   c-0.385,0.437-1.111,0.483-1.547,0.098c-0.221-0.193-0.352-0.461-0.369-0.754C61.546,26.741,61.644,26.46,61.837,26.239z    M47.275,22.694c0.209-0.236,0.508-0.372,0.824-0.372c0.266,0,0.523,0.098,0.724,0.274c0.22,0.194,0.351,0.461,0.369,0.754   c0.019,0.292-0.079,0.573-0.272,0.794c-0.385,0.435-1.111,0.482-1.547,0.097c-0.221-0.194-0.352-0.461-0.369-0.754   C46.985,23.195,47.082,22.914,47.275,22.694z"/><path d="M37.624,52.433c0.532,0.469,1.215,0.728,1.924,0.728c0.834,0,1.63-0.358,2.181-0.984c0.514-0.583,0.771-1.331,0.723-2.105   c-0.049-0.775-0.396-1.486-0.979-2c-0.923-0.814-2.326-0.892-3.377-0.31l-7.025-6.197c0.178-0.413,0.269-0.859,0.24-1.321   c-0.048-0.775-0.396-1.486-0.979-2c-1.158-1.021-3.085-0.9-4.105,0.256c-0.515,0.584-0.771,1.331-0.722,2.106s0.396,1.486,0.979,2   c0.532,0.469,1.215,0.728,1.923,0.728c0.521,0,1.021-0.154,1.461-0.412l7.019,6.192C36.407,50.234,36.659,51.582,37.624,52.433z    M38.725,49.526c0.208-0.236,0.509-0.371,0.824-0.371c0.267,0,0.524,0.097,0.725,0.274c0.219,0.193,0.35,0.461,0.369,0.754   c0.019,0.292-0.079,0.573-0.272,0.793c-0.385,0.435-1.111,0.481-1.547,0.097C38.369,50.674,38.326,49.979,38.725,49.526z    M27.682,41.245c-0.22-0.193-0.351-0.461-0.369-0.754c-0.019-0.292,0.078-0.573,0.272-0.794c0.208-0.235,0.508-0.37,0.823-0.37   c0.267,0,0.524,0.097,0.725,0.273c0.22,0.194,0.351,0.462,0.369,0.755c0.019,0.292-0.079,0.573-0.272,0.792   C28.844,41.583,28.119,41.63,27.682,41.245z"/></g><text x="0" y="115" fill="#000000" font-size="5px" font-weight="bold" font-family="'Helvetica Neue', Helvetica, Arial-Unicode, Arial, Sans-serif">Created by asianson.design</text><text x="0" y="120" fill="#000000" font-size="5px" font-weight="bold" font-family="'Helvetica Neue', Helvetica, Arial-Unicode, Arial, Sans-serif">from the Noun Project</text></svg>