<svg fill="#00f2c3" xmlns="http://www.w3.org/2000/svg" xmlns:xlink="http://www.w3.org/1999/xlink" version="1.1" x="0px" y="0px" viewBox="0 0 96 120" enable-background="new 0 0 96 96" xml:space="preserve"><path d="M43.822,85.241h8.355c1.98,0,3.592-1.611,3.592-3.592V49.914h2.457c1.235,0,2.406-0.653,3.057-1.704  c0.658-1.067,0.717-2.373,0.156-3.495L51.212,24.262C50.6,23.038,49.368,22.277,48,22.277c-1.371,0-2.603,0.761-3.213,1.985  L34.561,44.716c-0.562,1.122-0.503,2.429,0.157,3.495c0.649,1.05,1.82,1.703,3.056,1.703h2.457v31.735  C40.23,83.629,41.842,85.241,43.822,85.241z M37.773,46.914c-0.204,0-0.397-0.108-0.505-0.281c-0.107-0.175-0.117-0.39-0.024-0.575  l10.227-20.455c0.101-0.201,0.304-0.326,0.529-0.326c0.225,0,0.428,0.125,0.528,0.327l10.228,20.452  c0.092,0.186,0.082,0.402-0.027,0.579c-0.106,0.172-0.299,0.279-0.502,0.279H53.77c-0.552,0-1,0.449-1,1v33.735  c0,0.326-0.266,0.592-0.592,0.592h-8.355c-0.326,0-0.592-0.266-0.592-0.592V47.914c0-0.551-0.448-1-1-1H37.773z"/><path d="M79,15.259c0-2.481-2.019-4.5-4.5-4.5h-53c-2.481,0-4.5,2.019-4.5,4.5s2.019,4.5,4.5,4.5h53  C76.981,19.759,79,17.741,79,15.259z M20,15.259c0-0.827,0.673-1.5,1.5-1.5h53c0.827,0,1.5,0.673,1.5,1.5s-0.673,1.5-1.5,1.5h-53  C20.673,16.759,20,16.086,20,15.259z"/></svg>