<svg fill="#7153CB" xmlns="http://www.w3.org/2000/svg" xmlns:xlink="http://www.w3.org/1999/xlink" version="1.1" x="0px" y="0px" viewBox="0 0 100 125" enable-background="new 0 0 100 100" xml:space="preserve"><path d="M65.3,33.6c-1.7-3.6-3.6-7.2-5.7-10.7C49.3,39.6,32.9,40.2,31.1,40.2c-1.5,3.6-3.1,7.3-4.5,10.9c-0.5,1.2-0.9,2.4-1.3,3.6  C26.4,54.8,51.9,56.5,65.3,33.6z"/><path d="M74.7,59.6C59.6,80.1,29,79.9,23.3,79.6c0.7,2.5,1.7,5,3.1,7.4c7.6,13.1,31.1,15.2,42.4,5C77.6,83.9,77.4,71.3,74.7,59.6z"/><path d="M57.8,19.8C53.9,13.6,49.6,7.6,44.9,2c2.6,3.2-6.4,20.4-7.7,23.6c-1.4,3.4-2.8,6.8-4.2,10.2C34.5,35.9,45.6,36.2,57.8,19.8z  "/><path d="M73.1,53.8c-0.5-1.7-1.1-3.4-1.6-5C58,70.1,27.7,69.1,22.2,68.8c-0.1,1.7-0.1,3.3,0,5C56.7,76.2,70.4,58,73.1,53.8z"/><path d="M69.3,42.9c-0.1-0.2-0.1-0.3-0.2-0.5c-0.6-1.5-1.2-3-1.8-4.5C56.4,59.7,26.5,59.7,23.8,59.7c-0.4,1.5-0.7,2.9-1,4.4  C56.7,65.2,67.2,47.6,69.3,42.9z"/></svg>